<?xml version="1.0" encoding="UTF-8" standalone="no"?>
<svg width="14px" height="14px" viewBox="0 0 14 14" version="1.1" xmlns="http://www.w3.org/2000/svg" xmlns:xlink="http://www.w3.org/1999/xlink">
    <!-- Generator: sketchtool 3.8.3 (29802) - http://www.bohemiancoding.com/sketch -->
    <title>A03AA943-2747-4C83-8E70-C3985257858A</title>
    <desc>Created with sketchtool.</desc>
    <defs></defs>
    <g id="Таблица-стилей" stroke="none" stroke-width="1" fill="none" fill-rule="evenodd">
        <g transform="translate(-5493.000000, -935.000000)" id="Delete-Copy" stroke="#FFFFFF" stroke-width="2">
            <g transform="translate(5490.000000, 932.000000)">
                <g id="ic_del_photo" transform="translate(4.000000, 4.000000)">
                    <path d="M10,8 L10,9.22253338 C10,10.7564858 9.63213053,12 7.96220851,12 L4.03779149,12 C2.36006558,12 2,10.7597255 2,9.22253338 L2,8" id="Rectangle-853" stroke-linecap="round" stroke-linejoin="round"></path>
                    <path d="M9,0 L9,2.88901335 C9,3.50259433 8.41377023,4 7.69808936,4 L4.30191064,4 C3.58288525,4 3,3.50389018 3,2.88901335 L3,0" id="Rectangle-853-Copy" stroke-linejoin="round" transform="translate(6.000000, 2.000000) scale(1, -1) translate(-6.000000, -2.000000) "></path>
                    <path d="M6,8 L6,9" id="Line-Copy-4" stroke-linecap="round"></path>
                    <path d="M0,4 L12,4" id="Line" stroke-linecap="round"></path>
                </g>
            </g>
        </g>
    </g>
</svg>