<?xml version="1.0" encoding="UTF-8" standalone="no"?>
<svg width="40px" height="40px" viewBox="0 0 40 40" version="1.1" xmlns="http://www.w3.org/2000/svg" xmlns:xlink="http://www.w3.org/1999/xlink">
    <!-- Generator: Sketch 39.1 (31720) - http://www.bohemiancoding.com/sketch -->
    <title>Group 2</title>
    <desc>Created with Sketch.</desc>
    <defs></defs>
    <g id="Version-1.3" stroke="none" stroke-width="1" fill="none" fill-rule="evenodd">
        <g id="4-4-2-Добавить-объект:-обмен:-доки-загружены" transform="translate(-510.000000, -231.000000)" fill="#E9CDAF">
            <g id="Docs" transform="translate(473.000000, -671.000000)">
                <g id="Info" transform="translate(27.000000, 0.000000)">
                    <g id="ic_info" transform="translate(10.000000, 0.000000)">
                        <g id="Group-2" transform="translate(0.000000, 902.000000)">
                            <path d="M20,38 L20,38 C29.9411255,38 38,29.9411255 38,20 C38,10.0588745 29.9411255,2 20,2 C10.0588745,2 2,10.0588745 2,20 C2,29.9411255 10.0588745,38 20,38 L20,38 Z M20,40 L20,40 C8.954305,40 0,31.045695 0,20 C0,8.954305 8.954305,0 20,0 C31.045695,0 40,8.954305 40,20 C40,31.045695 31.045695,40 20,40 L20,40 Z" id="Oval-153"></path>
                            <path d="M21,28 L21,16 L19,16 L19,28 L21,28 Z M19,12 L21,12 L21,14 L19,14 L19,12 Z" id="Combined-Shape"></path>
                        </g>
                    </g>
                </g>
            </g>
        </g>
    </g>
</svg>