<?xml version="1.0" encoding="UTF-8" standalone="no"?>
<svg width="747px" height="387px" viewBox="0 0 747 387" version="1.1" xmlns="http://www.w3.org/2000/svg" xmlns:xlink="http://www.w3.org/1999/xlink">
    <!-- Generator: Sketch 3.8.3 (29802) - http://www.bohemiancoding.com/sketch -->
    <title>Logo</title>
    <desc>Created with Sketch.</desc>
    <defs></defs>
    <g id="2-sprint" stroke="none" stroke-width="1" fill="none" fill-rule="evenodd">
        <g id="Логотип" transform="translate(-324.000000, -249.000000)">
            <g id="Logo" transform="translate(324.000000, 249.000000)">
                <path d="M169.318198,104.504897 L169.318198,177.818281 C159.588772,184.749763 149.206368,189.92608 138.170677,193.347388 C127.134985,196.768697 115.040949,198.479325 101.888205,198.479325 C86.3031059,198.479325 72.2497008,196.102218 59.7275687,191.347933 C47.2054367,186.593647 36.5077325,179.92886 27.6341353,171.353373 C18.7605381,162.777886 11.9365289,152.491899 7.16190304,140.495103 C2.38727714,128.498308 0,115.302031 0,100.905876 C0,86.331991 2.31971269,73.04685 6.95920767,61.0500544 C11.5987026,49.0532588 18.197497,38.7672717 26.7557887,30.1917845 C35.3140804,21.6162973 45.7190053,14.9737268 57.9708755,10.2638738 C70.2227458,5.5540207 83.9158071,3.19912949 99.0504703,3.19912949 C106.707889,3.19912949 113.824678,3.75452836 120.401049,4.86534276 C126.977421,5.97615717 133.058221,7.57570592 138.643632,9.664037 C144.229044,11.7523681 149.408985,14.2849869 154.183611,17.2619695 C158.958237,20.2389521 163.41749,23.5935613 167.561505,27.3258977 L160.129342,39.0560392 C158.958207,40.8333422 157.449268,41.9663559 155.602478,42.4551143 C153.755689,42.9438726 151.706234,42.5217695 149.454052,41.1887922 C147.291957,39.94468 144.814594,38.4339951 142.021889,36.6566921 C139.229183,34.879389 135.828439,33.1687605 131.819555,31.5247552 C127.810671,29.8807499 123.08116,28.4811447 117.630879,27.3258977 C112.180599,26.1706507 105.716933,25.5930359 98.2396889,25.5930359 C87.3391278,25.5930359 77.4747185,27.3480963 68.646165,30.8582699 C59.8176114,34.3684434 52.2954363,39.3892492 46.0794139,45.9208379 C39.8633915,52.4524266 35.0888372,60.3613065 31.7556078,69.6477149 C28.4223784,78.9341233 26.7557887,89.3534061 26.7557887,100.905876 C26.7557887,112.902672 28.4899429,123.632978 31.9583032,133.097116 C35.4266635,142.561255 40.3813896,150.603431 46.8226302,157.223885 C53.2638708,163.844339 61.0788253,168.88736 70.2677279,172.353101 C79.4566306,175.818842 89.7714696,177.551687 101.212554,177.551687 C110.221282,177.551687 118.216409,176.551969 125.198173,174.552503 C132.179937,172.553037 139.003946,169.776042 145.670405,166.221436 L145.670405,124.232862 L115.53636,124.232862 C113.824702,124.232862 112.450892,123.744111 111.414888,122.766594 C110.378884,121.789077 109.86089,120.589416 109.86089,119.167573 L109.86089,104.504897 L169.318198,104.504897 Z M229.180897,61.3166485 L229.180897,196.346572 L205.127713,196.346572 L205.127713,61.3166485 L229.180897,61.3166485 Z M234.315847,18.9281828 C234.315847,21.2386768 233.842895,23.3936244 232.896979,25.3930903 C231.951063,27.3925562 230.68986,29.1698326 229.113332,30.7249728 C227.536805,32.280113 225.690043,33.5019905 223.572992,34.390642 C221.455941,35.2792935 219.226314,35.7236126 216.884045,35.7236126 C214.541776,35.7236126 212.357192,35.2792935 210.330228,34.390642 C208.303264,33.5019905 206.524067,32.280113 204.992583,30.7249728 C203.461099,29.1698326 202.244939,27.3925562 201.344067,25.3930903 C200.443194,23.3936244 199.992764,21.2386768 199.992764,18.9281828 C199.992764,16.6176888 200.443194,14.4183093 201.344067,12.3299782 C202.244939,10.2416472 203.461099,8.41993886 204.992583,6.86479869 C206.524067,5.30965853 208.303264,4.08778101 210.330228,3.19912949 C212.357192,2.31047797 214.541776,1.86615887 216.884045,1.86615887 C219.226314,1.86615887 221.455941,2.31047797 223.572992,3.19912949 C225.690043,4.08778101 227.536805,5.30965853 229.113332,6.86479869 C230.68986,8.41993886 231.951063,10.2416472 232.896979,12.3299782 C233.842895,14.4183093 234.315847,16.6176888 234.315847,18.9281828 L234.315847,18.9281828 Z M316.339906,130.364527 C321.204619,130.364527 325.483701,129.698048 329.177279,128.365071 C332.870858,127.032093 335.978822,125.165953 338.501266,122.766594 C341.02371,120.367235 342.915515,117.501377 344.176737,114.168934 C345.437959,110.83649 346.06856,107.170858 346.06856,103.171926 C346.06856,94.9074668 343.523633,88.3315442 338.433701,83.4439608 C333.34377,78.5563774 325.979245,76.1126224 316.339906,76.1126224 C306.61048,76.1126224 299.200912,78.5563774 294.11098,83.4439608 C289.021049,88.3315442 286.476122,94.9074668 286.476122,103.171926 C286.476122,107.170858 287.129245,110.83649 288.43551,114.168934 C289.741776,117.501377 291.656102,120.367235 294.178546,122.766594 C296.700989,125.165953 299.808954,127.032093 303.502533,128.365071 C307.196111,129.698048 311.475193,130.364527 316.339906,130.364527 L316.339906,130.364527 Z M359.716715,203.677911 C359.716715,200.3899 358.770813,197.723986 356.87898,195.680087 C354.987147,193.636189 352.442219,192.03664 349.244121,190.881393 C346.046022,189.726146 342.329978,188.904156 338.095876,188.415397 C333.861773,187.926639 329.379998,187.548968 324.650416,187.282372 C319.920834,187.015777 315.123758,186.749185 310.259045,186.48259 C305.394332,186.215994 300.709863,185.771675 296.205499,185.149619 C291.160612,187.460113 287.03918,190.370403 283.841082,193.880577 C280.642983,197.39075 279.043958,201.500702 279.043958,206.210555 C279.043958,209.23197 279.83221,212.053396 281.408737,214.674918 C282.985265,217.29644 285.395063,219.562468 288.638205,221.473069 C291.881348,223.383669 295.957736,224.894354 300.867493,226.005169 C305.77725,227.115983 311.565271,227.671382 318.231729,227.671382 C324.718014,227.671382 330.528556,227.093767 335.663531,225.93852 C340.798506,224.783273 345.145152,223.139292 348.7036,221.006529 C352.262047,218.873765 354.987147,216.341146 356.87898,213.408596 C358.770813,210.476046 359.716715,207.232517 359.716715,203.677911 L359.716715,203.677911 Z M384.175289,66.648531 L384.175289,75.4461371 C384.175289,78.3786871 382.283485,80.2448273 378.499819,81.0446137 L362.959841,83.0440696 C366.022808,88.9091697 367.554269,95.3962285 367.554269,102.505441 C367.554269,109.081462 366.270545,115.057554 363.703057,120.433896 C361.13557,125.810237 357.599697,130.40894 353.095333,134.230141 C348.590969,138.051343 343.185813,140.983849 336.879703,143.027748 C330.573594,145.071646 323.727063,146.09358 316.339906,146.09358 C309.943709,146.09358 303.907952,145.338238 298.232453,143.82753 C295.34966,145.604833 293.142555,147.493189 291.611071,149.492655 C290.079587,151.492121 289.313857,153.513773 289.313857,155.557671 C289.313857,158.756817 290.642624,161.178356 293.300199,162.822361 C295.957774,164.466367 299.448604,165.643812 303.772793,166.354733 C308.096983,167.065655 313.029187,167.509974 318.569555,167.687704 C324.109923,167.865434 329.785336,168.154242 335.595966,168.554135 C341.406596,168.954028 347.082009,169.642723 352.622377,170.620239 C358.162745,171.597756 363.094949,173.197305 367.419139,175.418934 C371.743328,177.640562 375.234158,180.706364 377.891733,184.616431 C380.549308,188.526498 381.878075,193.591735 381.878075,199.812296 C381.878075,205.588531 380.414179,211.186951 377.486342,216.607726 C374.558506,222.0285 370.346988,226.849362 364.851664,231.070457 C359.35634,235.291552 352.622417,238.668377 344.649692,241.201034 C336.676968,243.733691 327.690897,245 317.691208,245 C307.69152,245 298.953185,244.022498 291.475941,242.067465 C283.998696,240.112431 277.782767,237.490949 272.827967,234.202938 C267.873166,230.914927 264.157122,227.115999 261.679721,222.806039 C259.202321,218.496079 257.96364,213.98624 257.96364,209.276387 C257.96364,202.611501 260.080659,196.968648 264.314761,192.347661 C268.548863,187.726673 274.359406,184.038824 281.746563,181.284004 C277.692635,179.506701 274.472063,177.129594 272.08475,174.152612 C269.697437,171.175629 268.503799,167.154541 268.503799,162.089227 C268.503799,160.134194 268.864143,158.112542 269.584841,156.024211 C270.305539,153.93588 271.409092,151.84758 272.895532,149.759249 C274.381972,147.670918 276.206212,145.693698 278.368307,143.82753 C280.530402,141.961362 283.052808,140.317381 285.935601,138.895539 C279.179054,135.163202 273.909028,130.209044 270.125362,124.032916 C266.341696,117.856788 264.449891,110.681035 264.449891,102.505441 C264.449891,95.9294194 265.733616,89.9533276 268.301103,84.5769859 C270.868591,79.2006441 274.449507,74.6241574 279.043958,70.8473885 C283.638409,67.0706195 289.11113,64.1603294 295.462283,62.1164309 C301.813436,60.0725324 308.772574,59.0505985 316.339906,59.0505985 C322.285666,59.0505985 327.825951,59.6948612 332.960926,60.9834059 C338.095901,62.2719506 342.78037,64.1603067 347.014472,66.648531 L384.175289,66.648531 Z M434.03835,0 L434.03835,196.346572 L409.985166,196.346572 L409.985166,0 L434.03835,0 Z M530.656476,59.1838955 C540.656164,59.1838955 549.664757,60.8278762 557.682525,64.1158868 C565.700293,67.4038975 572.546824,72.069248 578.222323,78.1120783 C583.897821,84.1549087 588.244468,91.4639578 591.262391,100.039445 C594.280315,108.614932 595.789255,118.190009 595.789255,128.764962 C595.789255,139.42878 594.280315,149.026073 591.262391,157.557127 C588.244468,166.088182 583.897821,173.375015 578.222323,179.417845 C572.546824,185.460676 565.700293,190.10381 557.682525,193.347388 C549.664757,196.590967 540.656164,198.212731 530.656476,198.212731 C520.566701,198.212731 511.490543,196.590967 503.427732,193.347388 C495.36492,190.10381 488.495868,185.460676 482.820369,179.417845 C477.14487,173.375015 472.798224,166.088182 469.7803,157.557127 C466.762376,149.026073 465.253437,139.42878 465.253437,128.764962 C465.253437,118.190009 466.762376,108.614932 469.7803,100.039445 C472.798224,91.4639578 477.14487,84.1549087 482.820369,78.1120783 C488.495868,72.069248 495.36492,67.4038975 503.427732,64.1158868 C511.490543,60.8278762 520.566701,59.1838955 530.656476,59.1838955 L530.656476,59.1838955 Z M530.656476,179.68444 C544.169568,179.68444 554.259192,175.219033 560.925651,166.288085 C567.59211,157.357137 570.925289,144.893986 570.925289,128.898259 C570.925289,112.813666 567.59211,100.283868 560.925651,91.3084875 C554.259192,82.3331071 544.169568,77.8454842 530.656476,77.8454842 C523.809843,77.8454842 517.84165,79.0007139 512.751719,81.3112078 C507.661787,83.6217018 503.427748,86.954095 500.049475,91.3084875 C496.671202,95.66288 494.148796,101.016925 492.482182,107.370783 C490.815567,113.724642 489.982272,120.900395 489.982272,128.898259 C489.982272,144.893986 493.337973,157.357137 500.049475,166.288085 C506.760978,175.219033 516.963209,179.68444 530.656476,179.68444 L530.656476,179.68444 Z M650.381874,163.822089 C654.796151,169.687189 659.63827,173.819357 664.908376,176.218716 C670.178481,178.618075 675.966502,179.817737 682.272612,179.817737 C695.155093,179.817737 705.019503,175.330114 711.866136,166.354733 C718.712769,157.379353 722.136035,144.005348 722.136035,126.232318 C722.136035,109.703399 719.095635,97.5512721 713.014743,89.7755713 C706.933852,81.9998704 698.263081,78.1120783 687.002171,78.1120783 C679.164577,78.1120783 672.340568,79.8893547 666.529938,83.4439608 C660.719309,86.9985669 655.336675,92.0193727 650.381874,98.5065288 L650.381874,163.822089 Z M650.381874,80.7780196 C656.14746,74.2019983 662.656169,68.959033 669.908195,65.0489663 C677.160221,61.1388996 685.515691,59.1838955 694.974855,59.1838955 C702.992623,59.1838955 710.222019,60.6945805 716.66326,63.7159956 C723.1045,66.7374108 728.577221,71.1139539 733.081585,76.8457563 C737.585949,82.5775586 741.031736,89.5311524 743.419048,97.7067465 C745.806361,105.88234 747,115.079746 747,125.299238 C747,136.229652 745.648711,146.1824 742.946093,155.15778 C740.243474,164.133161 736.347258,171.797665 731.257326,178.151523 C726.167395,184.505382 719.973987,189.437324 712.676918,192.947497 C705.379848,196.457671 697.182028,198.212731 688.083213,198.212731 C679.074485,198.212731 671.484745,196.546535 665.313766,193.214091 C659.142788,189.881648 653.760153,185.14965 649.165702,179.017954 L647.94953,191.281284 C647.228831,194.65816 645.156855,196.346572 641.733538,196.346572 L626.19356,196.346572 L626.19356,0 L650.381874,0 L650.381874,80.7780196 Z" id="Giglob" fill="#ffffff"></path>
                <path d="M218,367.4 L218,367.4 C234.237172,367.4 247.4,354.237172 247.4,338 C247.4,321.762828 234.237172,308.6 218,308.6 C201.762828,308.6 188.6,321.762828 188.6,338 C188.6,354.237172 201.762828,367.4 218,367.4 L218,367.4 Z M218,387 L218,387 C190.938047,387 169,365.061953 169,338 C169,310.938047 190.938047,289 218,289 C245.061953,289 267,310.938047 267,338 C267,365.061953 245.061953,387 218,387 L218,387 Z" id="Oval-68" fill="#ffffff"></path>
                <path d="M338,308.6 L338,308.6 L357.6,289 L357.6,387 L338,367.4 L436,367.4 L416.4,387 L416.4,289 L436,308.6 L338,308.6 Z M338,289 L436,289 L436,387 L338,387 L338,289 L338,289 Z" id="Rectangle-72" fill="#ffffff"></path>
                <path d="M562,367.4 L562,367.4 C578.237172,367.4 591.4,354.237172 591.4,338 C591.4,321.762828 578.237172,308.6 562,308.6 C545.762828,308.6 532.6,321.762828 532.6,338 C532.6,354.237172 545.762828,367.4 562,367.4 L562,367.4 Z M562,387 L562,387 C534.938047,387 513,365.061953 513,338 C513,310.938047 534.938047,289 562,289 C589.061953,289 611,310.938047 611,338 C611,365.061953 589.061953,387 562,387 L562,387 Z" id="Oval-68-Copy-2" fill="#ffffff"></path>
                <path d="M271.666667,338 L281.333333,338 L291,338 L291,322 L281.333333,322 L271.666667,322 L262,322 L262,338 L271.666667,338 L271.666667,338 Z M329.666667,338 L339.333333,338 L349,338 L349,322 L339.333333,322 L329.666667,322 L320,322 L320,338 L329.666667,338 L329.666667,338 Z" id="Line" fill="#ffffff"></path>
                <path d="M429.666667,338 L439.333333,338 L449,338 L449,322 L439.333333,322 L429.666667,322 L420,322 L420,338 L429.666667,338 L429.666667,338 Z M487.666667,338 L497.333333,338 L507,338 L507,322 L497.333333,322 L487.666667,322 L478,322 L478,338 L487.666667,338 L487.666667,338 Z" id="Line-Copy" fill="#ffffff"></path>
            </g>
        </g>
    </g>
</svg>