<?xml version="1.0" encoding="UTF-8" standalone="no"?>
<svg width="26px" height="30px" viewBox="0 0 26 30" version="1.1" xmlns="http://www.w3.org/2000/svg" xmlns:xlink="http://www.w3.org/1999/xlink">
    <!-- Generator: sketchtool 3.8.3 (29802) - http://www.bohemiancoding.com/sketch -->
    <title>5B162855-C062-460E-976F-180807BD81BB</title>
    <desc>Created with sketchtool.</desc>
    <defs></defs>
    <g id="Version-1.3" stroke="none" stroke-width="1" fill="none" fill-rule="evenodd" stroke-linecap="round">
        <g id="7-Карточка-объекта" transform="translate(-1387.000000, -25.000000)" stroke="#09C77B" stroke-width="2">
            <g id="Header">
                <g id="people" transform="translate(1388.000000, 26.000000)">
                    <path d="M6.11569605,8.98470323 C7.06016196,11.581822 9.53008098,13.44 12,13.44 C15.1428571,13.44 18.2857143,10.4313535 18.2857143,6.72 C18.2857143,3.00864648 15.4715041,0 12,0 C9.84237878,0 7.93866458,1.16221424 6.80670958,2.93301167" id="Oval-7-Copy-3"></path>
                    <path d="M9.29478237,18.0852246 C0.483639982,19.8623799 0,28 0,28 L18.2857143,28 L24,28 C24,28 23.1557285,20.0032546 15.4725167,18.0852246" id="Oval-7-Copy-2" stroke-linejoin="round"></path>
                    <polyline id="Rectangle-157" stroke-linejoin="round" points="15.2324881 18.1039192 12.3753453 20.9039192 9.51820243 18.1039192 9.51820243 18.1039192"></polyline>
                    <path d="M6.70626395,3.11199219 C6.70626395,3.11199219 7.06522042,4.01283203 9.22956194,4.81017578 C11.3939035,5.60751953 12.7184012,5.22634766 12.7184012,5.22634766" id="Path-549"></path>
                </g>
            </g>
        </g>
    </g>
</svg>